<svg data-v-423bf9ae="" xmlns="http://www.w3.org/2000/svg" viewBox="0 0 333 90" class="iconLeft"><!----><!----><!----><g data-v-423bf9ae="" id="07d4cadd-5448-4a31-be63-dbfd08db927c" fill="#539594" transform="matrix(4.827031257192837,0,0,4.827031257192837,75.27980670710107,-7.928398471665972)"><path d="M5.24 7.92L5.24 7.92L5.24 7.92Q4.16 7.92 3.58 8.58L3.58 8.58L3.58 8.58Q3.01 9.24 3.01 10.44L3.01 10.44L3.01 10.44Q3.01 11.66 3.65 12.32L3.65 12.32L3.65 12.32Q4.28 12.98 5.36 12.98L5.36 12.98L5.36 12.98Q5.94 12.98 6.33 12.82L6.33 12.82L6.33 12.82Q6.73 12.67 7.10 12.47L7.10 12.47L7.10 12.47Q7.34 12.67 7.47 12.94L7.47 12.94L7.47 12.94Q7.60 13.22 7.60 13.58L7.60 13.58L7.60 13.58Q7.60 14.15 6.96 14.55L6.96 14.55L6.96 14.55Q6.33 14.95 5.03 14.95L5.03 14.95L5.03 14.95Q4.09 14.95 3.26 14.69L3.26 14.69L3.26 14.69Q2.44 14.42 1.82 13.87L1.82 13.87L1.82 13.87Q1.20 13.31 0.85 12.47L0.85 12.47L0.85 12.47Q0.49 11.62 0.49 10.44L0.49 10.44L0.49 10.44Q0.49 9.35 0.83 8.52L0.83 8.52L0.83 8.52Q1.18 7.69 1.77 7.11L1.77 7.11L1.77 7.11Q2.37 6.54 3.16 6.24L3.16 6.24L3.16 6.24Q3.96 5.95 4.87 5.95L4.87 5.95L4.87 5.95Q6.16 5.95 6.87 6.37L6.87 6.37L6.87 6.37Q7.57 6.79 7.57 7.45L7.57 7.45L7.57 7.45Q7.57 7.81 7.39 8.08L7.39 8.08L7.39 8.08Q7.21 8.34 6.97 8.50L6.97 8.50L6.97 8.50Q6.61 8.26 6.20 8.09L6.20 8.09L6.20 8.09Q5.78 7.92 5.24 7.92ZM15.76 11.30L15.76 11.30L15.76 11.30Q15.76 12.17 15.50 12.85L15.50 12.85L15.50 12.85Q15.23 13.52 14.75 13.99L14.75 13.99L14.75 13.99Q14.27 14.45 13.59 14.69L13.59 14.69L13.59 14.69Q12.92 14.92 12.10 14.92L12.10 14.92L12.10 14.92Q11.27 14.92 10.60 14.67L10.60 14.67L10.60 14.67Q9.93 14.42 9.44 13.95L9.44 13.95L9.44 13.95Q8.96 13.48 8.69 12.81L8.69 12.81L8.69 12.81Q8.43 12.14 8.43 11.30L8.43 11.30L8.43 11.30Q8.43 10.47 8.69 9.80L8.69 9.80L8.69 9.80Q8.96 9.13 9.44 8.66L9.44 8.66L9.44 8.66Q9.93 8.19 10.60 7.94L10.60 7.94L10.60 7.94Q11.27 7.69 12.10 7.69L12.10 7.69L12.10 7.69Q12.92 7.69 13.59 7.95L13.59 7.95L13.59 7.95Q14.27 8.20 14.75 8.67L14.75 8.67L14.75 8.67Q15.23 9.14 15.50 9.81L15.50 9.81L15.50 9.81Q15.76 10.49 15.76 11.30ZM10.86 11.30L10.86 11.30L10.86 11.30Q10.86 12.15 11.19 12.61L11.19 12.61L11.19 12.61Q11.52 13.06 12.11 13.06L12.11 13.06L12.11 13.06Q12.70 13.06 13.01 12.60L13.01 12.60L13.01 12.60Q13.33 12.14 13.33 11.30L13.33 11.30L13.33 11.30Q13.33 10.46 13.01 10.00L13.01 10.00L13.01 10.00Q12.68 9.55 12.10 9.55L12.10 9.55L12.10 9.55Q11.51 9.55 11.19 10.00L11.19 10.00L11.19 10.00Q10.86 10.46 10.86 11.30ZM16.63 11.30L16.63 11.30L16.63 11.30Q16.63 10.37 16.91 9.70L16.91 9.70L16.91 9.70Q17.19 9.02 17.69 8.57L17.69 8.57L17.69 8.57Q18.19 8.12 18.85 7.90L18.85 7.90L18.85 7.90Q19.52 7.69 20.29 7.69L20.29 7.69L20.29 7.69Q20.57 7.69 20.83 7.74L20.83 7.74L20.83 7.74Q21.10 7.78 21.27 7.85L21.27 7.85L21.27 5.59L21.27 5.59Q21.41 5.54 21.71 5.50L21.71 5.50L21.71 5.50Q22.02 5.45 22.34 5.45L22.34 5.45L22.34 5.45Q22.65 5.45 22.90 5.49L22.90 5.49L22.90 5.49Q23.14 5.53 23.31 5.66L23.31 5.66L23.31 5.66Q23.48 5.78 23.56 6.00L23.56 6.00L23.56 6.00Q23.65 6.22 23.65 6.57L23.65 6.57L23.65 13.20L23.65 13.20Q23.65 13.86 23.03 14.25L23.03 14.25L23.03 14.25Q22.62 14.52 21.98 14.72L21.98 14.72L21.98 14.72Q21.34 14.92 20.50 14.92L20.50 14.92L20.50 14.92Q19.59 14.92 18.87 14.67L18.87 14.67L18.87 14.67Q18.14 14.42 17.65 13.94L17.65 13.94L17.65 13.94Q17.15 13.47 16.89 12.80L16.89 12.80L16.89 12.80Q16.63 12.14 16.63 11.30ZM20.61 9.55L20.61 9.55L20.61 9.55Q19.85 9.55 19.45 9.98L19.45 9.98L19.45 9.98Q19.04 10.42 19.04 11.30L19.04 11.30L19.04 11.30Q19.04 12.17 19.42 12.61L19.42 12.61L19.42 12.61Q19.80 13.05 20.51 13.05L20.51 13.05L20.51 13.05Q20.76 13.05 20.96 12.97L20.96 12.97L20.96 12.97Q21.17 12.89 21.28 12.80L21.28 12.80L21.28 9.72L21.28 9.72Q21 9.55 20.61 9.55ZM28.73 14.92L28.73 14.92L28.73 14.92Q27.90 14.92 27.20 14.69L27.20 14.69L27.20 14.69Q26.49 14.46 25.96 14.00L25.96 14.00L25.96 14.00Q25.44 13.54 25.14 12.84L25.14 12.84L25.14 12.84Q24.84 12.14 24.84 11.20L24.84 11.20L24.84 11.20Q24.84 10.28 25.14 9.61L25.14 9.61L25.14 9.61Q25.44 8.95 25.93 8.52L25.93 8.52L25.93 8.52Q26.42 8.09 27.05 7.89L27.05 7.89L27.05 7.89Q27.68 7.69 28.34 7.69L28.34 7.69L28.34 7.69Q29.08 7.69 29.69 7.91L29.69 7.91L29.69 7.91Q30.30 8.13 30.74 8.53L30.74 8.53L30.74 8.53Q31.18 8.92 31.42 9.46L31.42 9.46L31.42 9.46Q31.67 10.01 31.67 10.65L31.67 10.65L31.67 10.65Q31.67 11.13 31.40 11.38L31.40 11.38L31.40 11.38Q31.14 11.63 30.66 11.70L30.66 11.70L27.20 12.22L27.20 12.22Q27.36 12.68 27.83 12.92L27.83 12.92L27.83 12.92Q28.31 13.15 28.92 13.15L28.92 13.15L28.92 13.15Q29.50 13.15 30.01 13.00L30.01 13.00L30.01 13.00Q30.52 12.85 30.84 12.66L30.84 12.66L30.84 12.66Q31.07 12.80 31.22 13.05L31.22 13.05L31.22 13.05Q31.37 13.30 31.37 13.58L31.37 13.58L31.37 13.58Q31.37 14.21 30.79 14.52L30.79 14.52L30.79 14.52Q30.34 14.76 29.78 14.84L29.78 14.84L29.78 14.84Q29.22 14.92 28.73 14.92ZM28.34 9.42L28.34 9.42L28.34 9.42Q28 9.42 27.76 9.53L27.76 9.53L27.76 9.53Q27.51 9.65 27.36 9.82L27.36 9.82L27.36 9.82Q27.20 10.00 27.13 10.21L27.13 10.21L27.13 10.21Q27.05 10.43 27.03 10.65L27.03 10.65L29.43 10.26L29.43 10.26Q29.39 9.98 29.12 9.70L29.12 9.70L29.12 9.70Q28.85 9.42 28.34 9.42ZM35.24 6.57L35.24 14.69L35.24 14.69Q35.08 14.71 34.78 14.76L34.78 14.76L34.78 14.76Q34.48 14.81 34.17 14.81L34.17 14.81L34.17 14.81Q33.87 14.81 33.62 14.77L33.62 14.77L33.62 14.77Q33.38 14.73 33.21 14.60L33.21 14.60L33.21 14.60Q33.04 14.48 32.95 14.26L32.95 14.26L32.95 14.26Q32.86 14.04 32.86 13.69L32.86 13.69L32.86 5.57L32.86 5.57Q33.01 5.54 33.31 5.50L33.31 5.50L33.31 5.50Q33.61 5.45 33.92 5.45L33.92 5.45L33.92 5.45Q34.23 5.45 34.48 5.49L34.48 5.49L34.48 5.49Q34.72 5.53 34.89 5.66L34.89 5.66L34.89 5.66Q35.06 5.78 35.15 6.00L35.15 6.00L35.15 6.00Q35.24 6.22 35.24 6.57L35.24 6.57ZM36.68 6.01L36.68 6.01L36.68 6.01Q36.68 5.47 37.04 5.11L37.04 5.11L37.04 5.11Q37.39 4.75 37.98 4.75L37.98 4.75L37.98 4.75Q38.57 4.75 38.93 5.11L38.93 5.11L38.93 5.11Q39.28 5.47 39.28 6.01L39.28 6.01L39.28 6.01Q39.28 6.54 38.93 6.90L38.93 6.90L38.93 6.90Q38.57 7.27 37.98 7.27L37.98 7.27L37.98 7.27Q37.39 7.27 37.04 6.90L37.04 6.90L37.04 6.90Q36.68 6.54 36.68 6.01ZM39.17 8.99L39.17 14.69L39.17 14.69Q39.02 14.71 38.72 14.76L38.72 14.76L38.72 14.76Q38.42 14.81 38.11 14.81L38.11 14.81L38.11 14.81Q37.80 14.81 37.55 14.77L37.55 14.77L37.55 14.77Q37.31 14.73 37.14 14.60L37.14 14.60L37.14 14.60Q36.97 14.48 36.88 14.26L36.88 14.26L36.88 14.26Q36.79 14.04 36.79 13.69L36.79 13.69L36.79 7.99L36.79 7.99Q36.95 7.97 37.25 7.92L37.25 7.92L37.25 7.92Q37.55 7.87 37.86 7.87L37.86 7.87L37.86 7.87Q38.16 7.87 38.41 7.91L38.41 7.91L38.41 7.91Q38.65 7.95 38.82 8.08L38.82 8.08L38.82 8.08Q38.99 8.20 39.08 8.42L39.08 8.42L39.08 8.42Q39.17 8.64 39.17 8.99L39.17 8.99ZM40.71 13.69L40.71 7.90L40.71 7.90Q40.71 7.18 40.96 6.67L40.96 6.67L40.96 6.67Q41.20 6.16 41.62 5.83L41.62 5.83L41.62 5.83Q42.04 5.50 42.61 5.35L42.61 5.35L42.61 5.35Q43.18 5.19 43.82 5.19L43.82 5.19L43.82 5.19Q44.86 5.19 45.35 5.47L45.35 5.47L45.35 5.47Q45.84 5.74 45.84 6.40L45.84 6.40L45.84 6.40Q45.84 6.68 45.72 6.90L45.72 6.90L45.72 6.90Q45.60 7.13 45.46 7.24L45.46 7.24L45.46 7.24Q45.19 7.17 44.91 7.12L44.91 7.12L44.91 7.12Q44.62 7.07 44.24 7.07L44.24 7.07L44.24 7.07Q43.64 7.07 43.30 7.27L43.30 7.27L43.30 7.27Q42.97 7.48 42.97 7.98L42.97 7.98L42.97 8.43L45.26 8.43L45.26 8.43Q45.35 8.58 45.42 8.81L45.42 8.81L45.42 8.81Q45.50 9.04 45.50 9.32L45.50 9.32L45.50 9.32Q45.50 9.81 45.28 10.03L45.28 10.03L45.28 10.03Q45.07 10.25 44.70 10.25L44.70 10.25L43.09 10.25L43.09 14.69L43.09 14.69Q42.95 14.73 42.65 14.77L42.65 14.77L42.65 14.77Q42.35 14.81 42.03 14.81L42.03 14.81L42.03 14.81Q41.72 14.81 41.48 14.77L41.48 14.77L41.48 14.77Q41.23 14.73 41.06 14.60L41.06 14.60L41.06 14.60Q40.89 14.48 40.80 14.26L40.80 14.26L40.80 14.26Q40.71 14.04 40.71 13.69L40.71 13.69ZM47.77 12.96L47.77 12.96L47.77 12.96Q47.61 12.61 47.44 12.18L47.44 12.18L47.44 12.18Q47.26 11.75 47.08 11.19L47.08 11.19L47.08 11.19Q46.89 10.63 46.68 9.91L46.68 9.91L46.68 9.91Q46.48 9.18 46.26 8.25L46.26 8.25L46.26 8.25Q46.45 8.05 46.78 7.90L46.78 7.90L46.78 7.90Q47.11 7.76 47.50 7.76L47.50 7.76L47.50 7.76Q47.99 7.76 48.31 7.96L48.31 7.96L48.31 7.96Q48.64 8.16 48.79 8.72L48.79 8.72L49.90 12.57L49.95 12.57L49.95 12.57Q50.12 12.10 50.28 11.54L50.28 11.54L50.28 11.54Q50.44 10.98 50.60 10.38L50.60 10.38L50.60 10.38Q50.75 9.79 50.88 9.19L50.88 9.19L50.88 9.19Q51.02 8.60 51.11 8.02L51.11 8.02L51.11 8.02Q51.62 7.76 52.22 7.76L52.22 7.76L52.22 7.76Q52.71 7.76 53.03 7.97L53.03 7.97L53.03 7.97Q53.35 8.18 53.35 8.69L53.35 8.69L53.35 8.69Q53.35 9.07 53.26 9.57L53.26 9.57L53.26 9.57Q53.16 10.07 53.00 10.63L53.00 10.63L53.00 10.63Q52.84 11.19 52.62 11.78L52.62 11.78L52.62 11.78Q52.40 12.38 52.16 12.95L52.16 12.95L52.16 12.95Q51.93 13.52 51.67 14.04L51.67 14.04L51.67 14.04Q51.42 14.55 51.18 14.95L51.18 14.95L51.18 14.95Q50.79 15.64 50.46 16.07L50.46 16.07L50.46 16.07Q50.12 16.51 49.81 16.75L49.81 16.75L49.81 16.75Q49.50 17.00 49.20 17.09L49.20 17.09L49.20 17.09Q48.89 17.18 48.55 17.18L48.55 17.18L48.55 17.18Q47.96 17.18 47.60 16.83L47.60 16.83L47.60 16.83Q47.24 16.48 47.17 15.92L47.17 15.92L47.17 15.92Q47.61 15.57 48.06 15.14L48.06 15.14L48.06 15.14Q48.51 14.71 48.87 14.27L48.87 14.27L48.87 14.27Q48.64 14.20 48.36 13.94L48.36 13.94L48.36 13.94Q48.09 13.68 47.77 12.96Z"></path></g><defs data-v-423bf9ae=""><linearGradient data-v-423bf9ae="" gradientTransform="rotate(25)" id="bf34726d-7c88-40e1-bcc5-e7a43c05c89a" x1="0%" y1="0%" x2="100%" y2="0%"><stop data-v-423bf9ae="" offset="0%" style="stop-color: rgb(35, 71, 85); stop-opacity: 1;"></stop><stop data-v-423bf9ae="" offset="100%" style="stop-color: rgb(83, 149, 148); stop-opacity: 1;"></stop></linearGradient></defs><g data-v-423bf9ae="" id="39c8c448-9967-42ef-ab5a-f1776cecc3fe" transform="matrix(1.0238907672089497,0,0,1.0238907672089497,-22.34573445202765,-6.145733677696192)" stroke="none" fill="url(#bf34726d-7c88-40e1-bcc5-e7a43c05c89a)"><path d="M50 6.1c-15.5 0-28.1 11.2-28.1 25v51.4l17 11.4V48.2l-5.3-1.3-2.6-7.1 14.7 3.5v18.9l4 3.1 4.3-3.1V43.4l15.4-3.6-2.7 7.1-6 1.4V94l17.5-11.4V31.1c-.1-13.8-12.7-25-28.2-25z"></path></g><!----></svg>